<svg version="1.0" xmlns="http://www.w3.org/2000/svg"
 width="512.000000pt" height="512.000000pt" viewBox="0 0 512.000000 512.000000"
 preserveAspectRatio="xMidYMid meet">

<g transform="translate(0.000000,512.000000) scale(0.100000,-0.100000)"
fill="#000000" stroke="none">
<path d="M2275 4674 c-923 -129 -1650 -832 -1818 -1759 -18 -101 -22 -157 -22
-355 0 -265 15 -374 79 -596 206 -714 795 -1283 1518 -1468 204 -52 366 -70
593 -63 270 8 477 49 715 143 634 251 1116 798 1284 1456 186 728 -24 1497
-554 2028 -318 320 -690 515 -1145 601 -149 28 -491 35 -650 13z m424 -414
c412 -37 779 -209 1070 -501 663 -667 661 -1737 -5 -2403 -292 -292 -663 -463
-1078 -496 -513 -42 -1028 164 -1387 556 -563 614 -594 1551 -72 2204 289 362
725 599 1177 639 132 12 168 12 295 1z"/>
<path d="M2440 3619 c-153 -18 -321 -80 -460 -170 -130 -85 -351 -332 -322
-361 6 -6 86 -55 179 -109 l168 -99 20 28 c35 49 129 144 172 173 106 73 200
107 323 116 211 15 425 -79 545 -240 97 -129 130 -231 129 -402 0 -102 -5
-132 -27 -201 -64 -192 -209 -337 -401 -401 -70 -23 -98 -27 -206 -27 -110 0
-134 3 -198 26 -110 40 -178 84 -274 179 l-87 85 -168 -99 c-92 -54 -172 -102
-177 -107 -23 -23 141 -207 268 -302 470 -350 1138 -258 1488 206 238 316 280
751 107 1115 -155 327 -472 549 -842 590 -107 12 -129 12 -237 0z"/>
</g>
</svg>
