<svg version="1.0" xmlns="http://www.w3.org/2000/svg"
 width="512.000000pt" height="512.000000pt" viewBox="0 0 512.000000 512.000000"
 preserveAspectRatio="xMidYMid meet">

<g transform="translate(0.000000,512.000000) scale(0.100000,-0.100000)"
fill="#000000" stroke="none">
<path d="M735 4786 c-37 -16 -70 -52 -84 -89 -6 -16 -11 -103 -11 -203 l0
-174 1761 0 1760 0 -3 188 -3 189 -29 37 c-54 71 76 66 -1728 66 -1339 -1
-1638 -3 -1663 -14z m225 -226 l0 -80 -80 0 -80 0 0 80 0 80 80 0 80 0 0 -80z
m320 0 l0 -80 -80 0 -80 0 0 80 0 80 80 0 80 0 0 -80z m320 0 l0 -80 -80 0
-80 0 0 80 0 80 80 0 80 0 0 -80z"/>
<path d="M4320 3760 l0 -800 80 0 80 0 0 800 0 800 -80 0 -80 0 0 -800z"/>
<path d="M640 2665 c0 -1653 -5 -1537 66 -1591 l37 -29 1131 -3 1131 -2 -80
80 -80 80 -195 0 -195 0 -120 80 -120 80 -67 0 -68 0 0 80 0 80 68 0 67 0 120
80 120 80 102 0 102 0 -11 31 c-14 42 -4 127 21 177 24 47 91 107 135 121 17
6 306 53 641 106 461 73 623 95 663 91 l52 -6 0 980 0 980 -1760 0 -1760 0 0
-1495z m1655 1230 l25 -24 0 -671 0 -671 -25 -24 -24 -25 -671 0 -671 0 -24
25 -25 24 0 671 0 671 25 24 24 25 671 0 671 0 24 -25z m505 -215 l0 -80 -80
0 -80 0 0 80 0 80 80 0 80 0 0 -80z m1120 0 l0 -80 -480 0 -480 0 0 80 0 80
480 0 480 0 0 -80z m0 -320 l0 -80 -640 0 -640 0 0 80 0 80 640 0 640 0 0 -80z
m0 -320 l0 -80 -640 0 -640 0 0 80 0 80 640 0 640 0 0 -80z m0 -320 l0 -80
-640 0 -640 0 0 80 0 80 640 0 640 0 0 -80z m-2800 -480 l0 -80 -80 0 -80 0 0
80 0 80 80 0 80 0 0 -80z m1120 0 l0 -80 -480 0 -480 0 0 80 0 80 480 0 480 0
0 -80z m-1104 -521 c14 -13 42 -55 61 -92 l34 -69 27 18 c95 63 138 84 174 84
52 0 82 -17 148 -84 l54 -56 143 0 143 0 0 -80 0 -80 -161 0 c-186 0 -199 4
-274 80 -27 28 -53 50 -57 50 -4 0 -42 -22 -84 -50 -61 -40 -85 -50 -119 -50
-60 0 -103 33 -144 109 l-34 64 -45 -114 c-25 -63 -46 -115 -47 -116 -3 -4
-129 48 -138 56 -7 7 74 224 109 293 8 16 29 38 47 49 45 28 127 22 163 -12z"/>
<path d="M1040 3200 l0 -560 79 0 78 0 5 91 c5 78 11 100 42 163 21 44 54 90
80 114 l45 41 -35 58 c-44 74 -57 124 -51 198 9 113 79 214 182 265 72 35 198
35 270 0 64 -31 124 -91 155 -155 20 -41 25 -65 24 -135 0 -87 -13 -127 -66
-202 l-19 -27 46 -42 c28 -25 59 -70 81 -115 31 -63 37 -85 42 -163 l5 -91 78
0 79 0 0 560 0 560 -560 0 -560 0 0 -560z"/>
<path d="M1535 3426 c-101 -44 -125 -178 -46 -257 112 -113 296 -12 267 146
-18 94 -131 151 -221 111z"/>
<path d="M1520 2947 c-49 -16 -133 -102 -148 -153 -7 -23 -12 -67 -12 -98 l0
-56 240 0 240 0 0 56 c0 81 -18 129 -67 184 -65 72 -158 97 -253 67z"/>
<path d="M4320 2720 l0 -80 80 0 80 0 0 80 0 80 -80 0 -80 0 0 -80z"/>
<path d="M3447 1955 c-318 -51 -589 -98 -602 -105 -51 -27 -59 -98 -16 -141
l29 -29 394 0 393 0 105 105 c58 58 108 105 112 105 11 0 108 -96 108 -106 0
-5 -21 -30 -47 -56 l-47 -48 207 0 c114 0 207 4 207 8 0 24 -79 273 -93 296
-23 35 -88 66 -134 65 -21 -1 -298 -43 -616 -94z"/>
<path d="M2448 1482 c-32 -20 -58 -39 -58 -42 0 -3 26 -22 58 -42 59 -38 59
-38 168 -38 l109 0 0 80 1 80 -111 0 -110 0 -57 -38z"/>
<path d="M2909 1491 c-20 -20 -29 -39 -29 -62 0 -28 20 -52 159 -193 l158
-161 6 -57 c7 -69 47 -148 96 -189 19 -16 87 -49 150 -74 64 -25 124 -55 134
-67 15 -18 17 -45 17 -234 l0 -214 360 0 360 0 0 480 0 480 -222 0 -222 0 49
-50 50 -50 -58 -58 -57 -57 -117 117 -118 116 -302 151 c-339 169 -360 175
-414 122z"/>
<path d="M3540 1440 l155 -79 393 0 392 -1 0 80 0 80 -547 -1 -548 0 155 -79z"/>
<path d="M4640 1440 l0 -80 55 0 c67 0 105 29 105 80 0 51 -38 80 -105 80
l-55 0 0 -80z"/>
</g>
</svg>
