<svg version="1.0" xmlns="http://www.w3.org/2000/svg"
 width="512.000000pt" height="512.000000pt" viewBox="0 0 512.000000 512.000000"
 preserveAspectRatio="xMidYMid meet">

<g transform="translate(0.000000,512.000000) scale(0.100000,-0.100000)"
fill="rgb(18, 42, 109)" stroke="none">
<path d="M3745 5106 c-217 -36 -390 -110 -553 -235 -120 -92 -1208 -1191
-1264 -1276 -143 -220 -202 -413 -201 -670 0 -217 35 -368 128 -555 91 -185
251 -362 412 -456 l46 -28 109 112 c141 144 153 169 151 317 l-2 109 -60 56
c-195 180 -245 463 -125 710 35 71 63 102 601 641 600 601 619 618 753 660
215 67 440 11 601 -150 187 -187 230 -450 113 -691 -34 -70 -61 -100 -405
-445 l-368 -370 34 -135 c47 -187 59 -294 52 -478 l-5 -155 525 524 c288 288
552 559 585 603 162 211 243 451 243 726 0 102 -6 170 -18 230 -103 485 -461
845 -942 945 -107 23 -309 28 -410 11z"/>
<path d="M2776 3200 c-139 -142 -151 -168 -150 -315 l0 -110 76 -75 c96 -97
143 -187 166 -324 15 -89 15 -103 0 -192 -11 -66 -28 -121 -53 -173 -36 -73
-62 -101 -642 -682 -642 -644 -658 -658 -793 -700 -215 -67 -440 -11 -601 150
-187 187 -230 450 -113 691 34 70 62 100 440 480 222 223 404 413 404 422 0 9
-17 83 -37 165 l-38 148 0 222 0 223 -563 -563 c-310 -309 -591 -597 -624
-641 -162 -211 -243 -451 -243 -726 0 -102 6 -170 18 -230 104 -487 460 -843
947 -947 117 -24 343 -24 460 0 185 40 356 117 496 225 94 71 1251 1230 1316
1317 170 226 252 524 227 820 -24 284 -154 562 -352 752 -65 62 -213 173 -231
173 -1 0 -51 -49 -110 -110z"/>
</g>
</svg>
